<svg width="98" height="58" viewBox="0 0 98 58" fill="none" xmlns="http://www.w3.org/2000/svg">
	<path
		d="M73.868 34.6821C72.9989 31.7562 71.3081 29.5771 68.4109 28.4116C65.4703 27.2279 62.6931 27.6811 60.0422 29.2472C57.3623 23.1629 52.8427 19.9336 46.4585 19.4176C46.4047 19.4621 46.3529 19.5066 46.3012 19.5552C45.9535 19.8749 45.5459 20.0772 45.1237 20.1703C44.7781 20.3585 44.4222 20.5325 44.0621 20.6944C44.0435 20.7672 44.0248 20.838 44 20.9088C44.2918 20.836 44.6022 20.7996 44.9292 20.7793C45.1278 20.7672 45.3244 20.7591 45.5231 20.7551C51.5348 20.6377 56.8118 24.3365 58.7964 30.0566C59.2268 31.2969 59.4255 31.3576 60.4933 30.5847C60.5202 30.5665 60.5451 30.5442 60.572 30.526C64.4128 27.7762 69.7312 29.0307 71.84 33.2111C72.1732 33.8687 72.3863 34.589 72.5933 35.2992C72.8995 36.3493 73.0196 36.4262 74.1205 36.0843C74.255 36.0418 74.3916 36.0074 74.5406 35.971L75 34.5162C74.613 34.5728 74.2488 34.6274 73.8639 34.6841"
		fill="#E8E8E8"
	/>
	<path
		d="M97.9162 47.41C97.4028 44.5012 95.6407 42.6568 92.78 41.9174C91.786 41.6615 90.7161 41.696 89.5557 41.5843C88.3112 38.8156 86.2555 36.6544 83.3393 35.33L83.0251 36.6686C83.1093 36.697 83.175 36.7214 83.2366 36.7539C85.5367 37.9239 87.1756 39.7074 88.2435 42.0231C88.763 43.1484 88.7589 43.1504 89.9767 43.0225C90.139 43.0062 90.3012 42.9818 90.4655 42.9757C92.1413 42.9026 93.6364 43.3718 94.8911 44.485C96.4868 45.9008 97.0639 48.2022 96.3225 50.0629C95.5771 51.9297 94.2216 52.732 91.7922 52.7341C88.3235 52.7381 84.857 52.7381 81.3904 52.7381C81.1296 52.7381 80.8667 52.732 80.6059 52.7544C80.226 52.7869 79.9549 53.0306 80.0062 53.38C80.0391 53.6034 80.302 53.8472 80.5217 53.9772C80.6963 54.0808 80.9674 54.0442 81.1933 54.0442C84.8898 54.0442 88.5864 54.0564 92.283 54.0341C92.897 54.03 93.5316 53.9569 94.119 53.7842C96.6819 53.0327 98.4029 50.1503 97.9182 47.408"
		fill="#E8E8E8"
	/>
	<path
		d="M89.498 20.6987C89.3504 20.6502 89.1867 20.6367 89.0311 20.625C87.8895 20.5436 86.748 20.4739 85.6085 20.3886C84.9479 20.3421 84.2874 20.2782 83.6428 20.222C83.092 18.8674 82.5711 17.5749 82.0402 16.2882C81.8746 15.8871 81.7169 15.4782 81.4934 15.1081C81.1921 14.6062 80.6792 14.6178 80.3758 15.1197C80.2002 15.4104 80.0845 15.7359 79.9528 16.0479C79.362 17.4393 78.7753 18.8306 78.1766 20.2452C76.5122 20.3673 74.8977 20.4836 73.2832 20.6037C73.0298 20.6231 72.7703 20.6231 72.5269 20.6832C71.8284 20.8556 71.6887 21.3323 72.1876 21.8284C72.4091 22.0474 72.6626 22.2373 72.9081 22.433C74.0875 23.367 75.2689 24.2972 76.4703 25.2448C76.0253 26.8376 75.5822 28.4111 75.1512 29.9866C74.786 31.3237 74.8977 31.4613 76.3226 31.3644C76.2827 31.5078 76.2288 31.6977 76.167 31.9186C75.7958 33.2285 75.1133 35.6101 75.1133 35.6101C75.1173 35.6101 75.1232 35.6062 75.1272 35.6062C74.9696 36.205 74.8558 36.6778 74.7201 37.1449C72.8961 43.4447 70.6968 49.6205 68.2621 55.7188C68.1584 55.9784 68.0187 56.2381 68.0007 56.5055C67.9887 56.678 68.1324 56.9764 68.2681 57.0171C68.4617 57.0733 68.773 57.0055 68.9247 56.8737C69.0963 56.7225 69.1562 56.4454 69.248 56.2148C69.6451 55.213 70.0383 54.2092 70.4394 53.1822C72.487 52.9864 74.4687 52.7965 76.5282 52.6008C76.4643 52.8857 76.4384 53.064 76.3865 53.2306C76.0273 54.3817 75.6621 55.5308 75.3009 56.6819C75.237 56.8873 75.1332 57.1082 75.1632 57.3058C75.1891 57.486 75.3448 57.736 75.4984 57.7845C75.6521 57.831 75.9255 57.7108 76.0552 57.5791C76.1969 57.4337 76.2468 57.1973 76.3186 56.9938C76.5901 56.2032 76.8595 55.4126 77.1189 54.62C78.9869 48.9151 80.5175 43.1211 82.0482 37.327C82.0722 37.2321 82.7926 34.1219 83.2935 31.9186C83.4771 31.1125 83.6308 30.4284 83.7126 30.0563C84.3532 30.4555 84.904 30.8024 85.4608 31.1415C85.8061 31.3508 86.1573 31.6453 86.5804 31.3101C86.9496 31.0175 86.8079 30.6493 86.7021 30.2869C86.3668 29.1281 86.0395 27.9693 85.7143 26.8105C85.5646 26.2796 85.4309 25.7467 85.2892 25.2041C86.6043 24.1964 87.8736 23.2236 89.1428 22.2489C89.3663 22.0764 89.6078 21.9156 89.7954 21.7102C90.1586 21.3091 90.0249 20.8769 89.5 20.7006M76.9712 51.4808C74.9416 51.6687 73.0238 51.847 71.0162 52.033C71.0481 51.8044 71.0441 51.6319 71.098 51.4788C71.4233 50.5467 71.7805 49.6243 72.0878 48.6884C72.2096 48.3202 72.3812 48.1109 72.8003 48.0838C74.5026 47.9772 76.2029 47.8551 78.0688 47.7272C77.6877 49.0294 77.3404 50.2212 76.9712 51.4808ZM78.3702 46.6149C76.4883 46.7525 74.6702 46.8862 72.7244 47.0277C73.1415 45.803 73.5167 44.7042 73.9119 43.5474C75.714 43.3672 77.4961 43.1889 79.382 43.0009C79.0268 44.2721 78.7055 45.4212 78.3722 46.6149M79.6714 41.8654C77.9112 42.0611 76.163 42.2549 74.2631 42.4641C74.6443 41.2278 74.9875 40.1175 75.3348 38.9916C77.085 38.8598 78.7753 38.7319 80.5714 38.5963C80.2581 39.7338 79.9767 40.7627 79.6714 41.8673M81.0244 36.7108V36.7147C80.9646 36.9511 80.9087 37.1836 80.8448 37.4375C79.1665 37.5964 77.5041 37.7553 75.676 37.9297C76.0053 36.736 76.3027 35.6586 76.61 34.5482C78.2784 34.4339 79.8869 34.3234 81.5792 34.2052C81.5593 34.4067 81.0783 36.4937 81.0244 36.7108ZM81.9205 33.0677C80.2661 33.2033 78.6715 33.3332 76.9433 33.4727C77.073 32.9301 77.1928 32.4166 77.3125 31.9186C77.4243 31.4516 77.534 31.0001 77.6518 30.5466C77.6857 30.4148 77.8134 30.2792 77.9351 30.1978C78.899 29.5603 79.8709 28.9363 80.8788 28.2852C81.5393 28.6921 82.0961 29.0371 82.7307 29.4285C82.5471 30.254 82.3615 31.0756 82.1739 31.9186C82.0901 32.2965 82.0043 32.6782 81.9185 33.0677M87.3567 22.3284C86.4606 23.0163 85.5506 23.6887 84.6566 24.3805C84.0139 24.8766 84.0139 24.925 84.2554 25.7157C84.6585 27.0372 85.0537 28.3588 85.3151 29.7967C84.9559 29.5777 84.5947 29.3587 84.2355 29.1359C83.3274 28.572 82.4134 28.0158 81.5134 27.4364C81.0544 27.1419 80.6512 27.1651 80.2022 27.4694C79.2383 28.1185 78.2544 28.7406 77.2746 29.3704C77.0151 29.537 76.7417 29.6862 76.3646 29.9091C76.4144 29.5951 76.4264 29.3936 76.4803 29.2056C76.8016 28.1108 77.091 27.0024 77.4781 25.9307C77.7396 25.2099 77.6318 24.7177 76.9812 24.2623C76.135 23.6654 75.3428 22.995 74.5305 22.3536C74.295 22.1675 74.0735 21.9641 73.7103 21.6501C75.0175 21.5513 76.141 21.4641 77.2666 21.3846C77.552 21.3653 77.8374 21.3536 78.1227 21.3614C78.7115 21.3769 79.0427 21.1172 79.2503 20.5746C79.7452 19.2782 80.294 18.0012 80.8867 16.5556C81.0923 16.9703 81.2499 17.2494 81.3717 17.54C81.7828 18.507 82.2178 19.4682 82.5691 20.4564C82.8046 21.1192 83.2197 21.3556 83.9122 21.375C85.1495 21.4079 86.3828 21.5029 87.6181 21.5765C87.7339 21.5823 87.8496 21.6075 88.145 21.6463C87.8017 21.9447 87.5902 22.152 87.3547 22.3303"
		fill="#E8E8E8"
	/>
	<path
		d="M11.4437 33.0384C11.7097 32.1188 11.9078 31.2345 12.2233 30.3875C14.0425 25.517 19.2401 21.8269 25.0585 22.2602C28.9917 22.5543 32.0938 24.3013 34.4946 27.2326C34.5956 27.3542 34.6843 27.4875 34.7607 27.6248C34.9236 27.913 34.8576 28.1777 34.6039 28.3816C34.3028 28.6248 33.9831 28.5738 33.7211 28.3267C33.5128 28.1306 33.3561 27.8856 33.1704 27.6679C30.8563 24.964 27.8491 23.519 24.2025 23.4503C21.1644 23.3935 18.5883 24.6013 16.4123 26.566C14.4674 28.3228 13.2958 30.4796 12.9328 33.0207C12.7472 34.3227 12.739 34.3227 11.3777 34.3795C6.98448 34.5638 2.85115 37.8559 1.76007 42.0421C1.09594 44.593 1.29188 47.0597 2.56859 49.4165C2.76247 49.7753 3.00378 50.1145 3.24304 50.4498C3.92161 51.4007 4.726 51.8831 6.08109 51.8792C26.2857 51.8223 46.4903 51.8341 66.6949 51.8321C66.9568 51.8321 67.258 51.7772 67.4704 51.8792C67.6932 51.987 67.918 52.2341 67.9819 52.4595C68.0686 52.7635 67.8334 52.9948 67.4993 53.0497C67.2415 53.0909 66.9754 53.0948 66.7135 53.0948C54.7549 53.0987 42.7963 53.1007 30.8377 53.1007C22.3607 53.1007 13.8857 53.0831 5.4087 53.1144C4.40218 53.1184 3.65348 52.8301 2.96459 52.1654C1.45069 50.7106 0.617427 48.9381 0.219358 46.9714C-0.754159 42.15 1.57444 37.2069 5.97796 34.656C7.49392 33.7776 8.92739 33.3482 11.4416 33.0364"
		fill="#E8E8E8"
	/>
	<path
		d="M4.00206 44.1619C4.21421 41.15 5.57981 38.8077 8.69619 37.4049C8.89804 37.3144 9.12461 37.1968 9.33265 37.2022C9.55716 37.2094 9.77755 37.3488 10 37.4303C9.90113 37.6203 9.83316 37.8321 9.69104 37.9914C9.60247 38.091 9.39856 38.1054 9.25026 38.167C6.5932 39.2621 4.87127 41.8414 5.07518 44.4262C5.09372 44.6561 5.18641 44.8986 5.12667 45.1104C5.07312 45.3005 4.85891 45.4561 4.71679 45.6263C4.52935 45.4978 4.23687 45.3982 4.17714 45.2335C4.05149 44.8841 4.04943 44.5004 4 44.1619"
		fill="#E8E8E8"
	/>
	<path
		d="M22 26.3952C21.7427 26.6447 21.5928 26.8568 21.3902 26.9691C21.1107 27.1251 20.7785 27.1791 20.4888 27.3164C18.2888 28.3665 16.8363 30.0863 16.1374 32.4715C16.0726 32.6919 16.0645 32.9498 15.945 33.1286C15.8356 33.2908 15.55 33.4988 15.4446 33.451C15.2542 33.3636 15.0678 33.1203 15.0131 32.9061C14.9625 32.7065 15.0699 32.4549 15.1367 32.2344C16.024 29.3481 17.8269 27.3122 20.5536 26.1539C20.8149 26.0437 21.1147 25.9585 21.3902 25.9709C21.5645 25.9793 21.7285 26.1934 22 26.391"
		fill="#E8E8E8"
	/>
	<path
		d="M56.4773 29.7138C56.2176 29.5025 55.9959 29.3828 55.8768 29.2133C55.5741 28.7766 55.3453 28.3041 55.0331 27.8714C54.2371 26.7667 53.1528 25.8993 51.8182 25.2493C51.5894 25.1376 51.3177 25.0599 51.1533 24.9023C51.0317 24.7847 50.9507 24.5095 51.0341 24.4019C51.1533 24.2483 51.425 24.1387 51.6537 24.1008C51.8063 24.0768 52.0041 24.1965 52.1685 24.2722C54.3348 25.2712 55.8649 26.7548 56.873 28.6271C56.9611 28.7926 57.0374 29.0099 56.9802 29.1695C56.9159 29.3469 56.6966 29.4865 56.475 29.7118"
		fill="#E8E8E8"
	/>
	<path
		d="M65.6334 30.6514C66.7447 30.6245 67.6877 30.9717 68.5377 31.5087C68.7237 31.6268 68.934 31.7843 68.9871 31.9526C69.0358 32.1083 68.9406 32.3463 68.8012 32.4662C68.706 32.5504 68.4204 32.5217 68.2323 32.4931C68.1105 32.4752 68.002 32.3696 67.9002 32.2944C67.0679 31.6805 66.0917 31.4532 64.9848 31.5839C64.5554 31.6358 64.0441 31.7038 64.002 31.2277C63.9644 30.7963 64.4669 30.7247 64.9007 30.6872C65.1442 30.6657 65.3899 30.6621 65.6357 30.6514"
		fill="#E8E8E8"
	/>
	<path
		d="M74.6302 10.9933C74.7289 11.068 74.945 11.1671 75.0583 11.3259C75.6731 12.1761 76.2606 13.0413 76.8587 13.9008C77.0622 14.1942 77.0748 14.4708 76.7034 14.6632C76.3677 14.8389 76.1159 14.6782 75.9438 14.4353C75.3206 13.5552 74.6932 12.6769 74.1078 11.7744C73.8455 11.3708 74.0784 10.9914 74.6282 10.9933"
		fill="#E8E8E8"
	/>
	<path
		d="M81.9987 10.5314C81.9987 11.1132 82.0027 11.6969 81.9967 12.2787C81.9928 12.5783 81.8978 12.8489 81.5399 12.8644C81.1285 12.8837 81.0099 12.5977 81.0079 12.2575C81.002 11.0919 81.004 9.92833 81 8.76279C81 8.4458 81.1147 8.20805 81.4628 8.18679C81.8781 8.16166 81.9908 8.4342 81.9908 8.78405C81.9908 9.36585 81.9908 9.94959 81.9908 10.5314H81.9987Z"
		fill="#E8E8E8"
	/>
	<path
		d="M94.5525 23.1596C93.9065 23.1596 93.2627 23.1652 92.6167 23.1578C92.2734 23.154 91.9856 23.0204 92.0006 22.6993C92.0155 22.4042 92.2585 22.2297 92.6231 22.2297C93.8788 22.2297 95.1367 22.2241 96.3924 22.226C96.7463 22.226 96.9979 22.3763 97 22.6937C97.0021 23.0241 96.7292 23.1485 96.3839 23.1522C95.772 23.1578 95.1622 23.1522 94.5504 23.1522V23.1578L94.5525 23.1596Z"
		fill="#E8E8E8"
	/>
	<path
		d="M87.4428 14.7374C87.2734 14.5049 87.0623 14.3185 87.0051 14.1014C86.9677 13.965 87.1458 13.7709 87.2536 13.6191C87.7838 12.8717 88.3249 12.1281 88.8639 11.3845C88.9387 11.2827 89.0069 11.1328 89.1146 11.1021C89.3478 11.0367 89.6866 10.9387 89.8274 11.031C89.9725 11.127 90.0539 11.4921 89.9594 11.6401C89.4336 12.4605 88.8441 13.2502 88.2765 14.0476C88.1841 14.1763 88.1072 14.3204 87.9884 14.4242C87.874 14.526 87.7112 14.5875 87.445 14.7355"
		fill="#E8E8E8"
	/>
	<path
		d="M67.6025 22.2274C68.1815 22.2274 68.7605 22.2274 69.3373 22.2274C69.6753 22.2274 69.9745 22.3221 69.9982 22.6468C70.0261 23.018 69.7334 23.1572 69.3417 23.1572C68.1169 23.1609 66.89 23.1627 65.6653 23.1609C65.3316 23.1609 65.0303 23.0737 65.0023 22.7452C64.97 22.3629 65.2821 22.2441 65.6631 22.2386C66.3088 22.2312 66.9567 22.2367 67.6025 22.2367V22.2256V22.2274Z"
		fill="#E8E8E8"
	/>
	<path
		d="M72 17.7947C72.0023 18.3319 71.5672 18.6182 71.1227 18.417C70.6829 18.2183 70.2761 17.9414 69.8574 17.6953C69.3095 17.3735 68.7356 17.0848 68.2347 16.7014C68.063 16.5712 67.9407 16.1358 68.0301 15.9631C68.1218 15.7856 68.5804 15.6105 68.7427 15.6957C69.7681 16.2305 70.7606 16.8292 71.7507 17.4302C71.8871 17.5131 71.9506 17.7213 72 17.797"
		fill="#E8E8E8"
	/>
	<path
		d="M95 16.348C94.9152 16.45 94.8092 16.6609 94.6373 16.7675C93.7541 17.3122 92.8568 17.8336 91.9595 18.3598C91.618 18.5591 91.2953 18.5243 91.0975 18.1767C90.9067 17.8429 90.9986 17.537 91.3495 17.3376C92.2821 16.8046 93.2077 16.2506 94.1569 15.75C94.5855 15.5229 95.0353 15.8242 94.9976 16.3503"
		fill="#E8E8E8"
	/>
	<path
		d="M25 26.5366C24.874 26.64 24.7279 26.852 24.5449 26.8923C24.2644 26.9554 24.031 26.7942 24.0025 26.4578C23.9773 26.1599 24.1469 25.9952 24.4173 25.9724C24.7145 25.9479 24.916 26.0898 25 26.5366Z"
		fill="#E8E8E8"
	/>
	<path
		d="M50 23.6658C49.7035 23.8817 49.5312 24.0995 49.3589 24.0976C49.2346 24.0976 49.0309 23.8206 49.006 23.6409C48.9613 23.3295 49.1717 23.1135 49.4351 23.1709C49.5958 23.2053 49.73 23.4193 49.9983 23.6658"
		fill="#E8E8E8"
	/>
	<path
		d="M53.9142 13.0735C51.9715 12.9719 50.0739 14.0576 48.7487 15.3428C48.7035 15.291 48.6502 15.245 48.5887 15.2047C48.5866 15.2047 48.5825 15.2028 48.5804 15.2009C49.5672 13.8121 51.0853 12.5307 52.8557 12.2775C52.9767 12.2602 52.9542 12.0837 52.8331 12.101C50.995 12.3638 49.4339 13.6816 48.4143 15.1184C48.0676 14.9899 47.6593 15.0954 47.4357 15.3927C47.2737 15.6056 47.2449 15.8684 47.3332 16.0967C47.167 16.2118 46.9865 16.3461 46.7916 16.4995C47.5752 14.587 48.7097 10.8465 47.2019 7.84057C46.2931 6.02974 45.5935 4.93251 45.0786 4.0693C44.9494 3.85254 44.8324 3.65112 44.7257 3.45738C44.7257 3.45738 44.7257 3.45546 44.7257 3.45354C44.6929 3.39407 44.6622 3.33461 44.6314 3.27706C44.6252 3.26363 44.617 3.25021 44.6109 3.23678C44.5862 3.19074 44.5637 3.14278 44.5411 3.09675C44.5329 3.07948 44.5247 3.06222 44.5165 3.04495C44.496 3.00275 44.4755 2.95863 44.457 2.91643C44.4488 2.89725 44.4406 2.87998 44.4324 2.8608C44.4139 2.8186 44.3955 2.77448 44.377 2.73228C44.3688 2.71502 44.3626 2.69775 44.3544 2.67857C44.336 2.63253 44.3175 2.58457 44.299 2.53662C44.2949 2.52319 44.2888 2.50976 44.2847 2.49634C44.2395 2.37357 44.2006 2.24888 44.1636 2.11844C44.1595 2.10118 44.1554 2.08583 44.1513 2.06857C44.139 2.02061 44.1267 1.97265 44.1144 1.92278C44.1083 1.89976 44.1042 1.87674 44.098 1.85181C44.0877 1.80769 44.0795 1.76357 44.0713 1.71945C44.0652 1.69259 44.0611 1.66574 44.057 1.63888C44.0488 1.59476 44.0406 1.55064 44.0344 1.5046C44.0303 1.47583 44.0262 1.44897 44.0221 1.41828C44.0159 1.37224 44.0098 1.32429 44.0036 1.27633C43.9995 1.24756 43.9975 1.21878 43.9934 1.19001C43.9872 1.13822 43.9831 1.08259 43.977 1.02888C43.9749 1.00202 43.9708 0.977085 43.9688 0.95023C43.9626 0.867745 43.9564 0.785261 43.9523 0.697021C43.9523 0.697021 41.8311 2.81093 38.7232 4.99197C35.6132 7.17302 34.3412 12.9239 38.7232 15.5001C38.7232 15.5001 34.2325 13.6855 30.8066 15.9624C27.5817 18.1051 27.2022 20.2574 26 19.9274C26 19.9274 26 19.9274 26.0021 19.9293C26.0021 19.9293 26.0021 19.9293 26.0041 19.9313C26.0062 19.9332 26.0103 19.9351 26.0123 19.9389C26.4288 20.2766 35.3403 27.3817 42.9882 21.2971C42.5697 22.12 42.1758 23.0503 41.8352 24.0977C41.8352 24.0977 46.5598 21.3412 48.045 16.6012C48.3281 16.6223 48.6133 16.5091 48.7897 16.277C48.9702 16.0372 48.9846 15.7322 48.8553 15.4867C50.1375 14.2283 52.0064 13.1445 53.8999 13.2443C54.023 13.25 54.0373 13.0735 53.9163 13.0678"
		fill="#E8E8E8"
	/>
	<path
		d="M84.9566 25.5987C85.3754 26.8956 85.786 28.1925 86.0576 29.6036C85.6844 29.3887 85.3091 29.1738 84.9359 28.9551C83.9924 28.4017 83.0427 27.8559 82.1075 27.2873C81.6306 26.9983 81.2118 27.0211 80.7452 27.3197C79.7437 27.9567 78.7215 28.5672 77.7033 29.1852C77.4338 29.3488 77.1497 29.4952 76.7578 29.7139C76.8097 29.4058 76.8221 29.208 76.8781 29.0236C77.2119 27.9491 77.5126 26.8633 77.9148 25.8098C78.1865 25.1023 78.0745 24.6193 77.3985 24.1724C76.5194 23.5867 75.6962 22.9287 74.8522 22.2993C74.6076 22.1167 74.3774 21.917 74 21.609C75.3582 21.512 76.5256 21.4264 77.6951 21.3484C77.9916 21.3275 78.2902 21.318 78.5846 21.3256C79.1963 21.3408 79.5405 21.086 79.7562 20.5536C80.2704 19.2813 80.8406 18.0281 81.4565 16.6095C81.67 17.0165 81.8338 17.2903 81.9624 17.5755C82.3895 18.5245 82.8416 19.4677 83.2065 20.4375C83.4512 21.0879 83.8825 21.3218 84.602 21.3389C85.8855 21.3713 87.1691 21.4644 88.4526 21.5367C88.5729 21.5424 88.6931 21.5671 89 21.6052C88.6434 21.898 88.4236 22.1015 88.1789 22.2784C87.2479 22.9535 86.3023 23.6133 85.3734 24.2922C84.7057 24.779 84.7057 24.8266 84.9566 25.6025"
		fill="#E8E8E8"
	/>
</svg>
